<svg width="96" height="96" viewBox="0 0 96 96" fill="none" xmlns="http://www.w3.org/2000/svg">
<path d="M45.4916 50.2075V46.4333L39.25 40.5658L36.4217 37.908L32.7209 34.4302L20.5591 23L12.0459 70.3504L30.0585 62.4964C28.2647 60.9255 26.9928 59.2509 26.0499 57.2777L20.1856 59.772L20.7741 56.7201L24.5737 37.0816L24.8914 35.433L28.0279 38.5661L32.0634 42.5973L33.7974 44.33L40.9222 50.4157L34.0044 53.5581C35.8021 55.3392 37.9283 56.9059 40.798 57.7917L49.4265 53.9487L45.4916 50.2075Z" fill="#ED1C24"/>
<path d="M48.2186 34.5806C50.9112 34.5806 53.4594 35.0182 55.7291 35.7969L59.2575 32.1539C55.965 30.867 52.2098 30.1359 48.2186 30.1359C42.2707 30.1359 36.8419 31.7592 32.6997 34.4301L36.401 37.9078C39.483 35.8469 43.64 34.5806 48.2186 34.5806Z" fill="white"/>
<path d="M67.0618 37.062L63.326 40.9209C64.6621 42.6489 65.4218 44.6321 65.4218 46.7401C65.4218 47.4547 65.3288 48.1541 65.1609 48.8345C64.7251 50.609 63.7446 52.2517 62.3468 53.6733C60.9139 55.129 59.0446 56.353 56.8703 57.2511C55.929 57.6381 54.9292 57.9633 53.8856 58.2214C52.1111 58.6574 50.2049 58.8991 48.2186 58.8991C45.7728 58.8991 43.4494 58.5379 41.3433 57.8869C38.4747 57.0005 36.0152 55.579 34.217 53.7974C33.5608 53.1487 32.9943 52.4517 32.5271 51.7154C31.9512 50.809 31.5246 49.8438 31.2751 48.8345C31.1081 48.1541 31.0164 47.4547 31.0164 46.7401C31.0164 45.8021 31.172 44.8886 31.4556 44.0117L27.1624 39.7028C25.5913 42.0148 24.7036 44.6192 24.7036 47.3782C24.7036 48.0888 24.7691 48.7875 24.8834 49.4739C25.1585 51.1419 25.7609 52.7328 26.6385 54.2185C27.0777 54.9649 27.5892 55.6831 28.1636 56.3712C29.6739 58.1774 31.6219 59.763 33.9026 61.0511C37.8669 63.2873 42.8285 64.6197 48.2186 64.6197C51.9898 64.6197 55.5509 63.9691 58.7088 62.8133C59.666 62.4621 60.5859 62.0651 61.4637 61.6234C63.5009 60.603 65.3057 59.3537 66.8132 57.9263C69.3432 55.5314 71.0329 52.6353 71.5549 49.4739C71.6687 48.7875 71.7334 48.0888 71.7334 47.3782C71.7334 43.5094 69.9963 39.9387 67.0618 37.062Z" fill="white"/>
<path d="M52.5201 53.1572L56.8342 57.2654C59.0079 56.3679 60.8933 55.1581 62.3268 53.7024L56.4119 48.069L54.491 46.2405L59.0512 41.5311L61.4692 39.0325L65.0199 35.3643L68.238 32.0412L82.5577 45.6747L80.6349 47.6603L68.9039 59.774C67.6691 61.4536 66.066 62.9429 64.1723 64.2283L68.9911 68.8403L91.5974 45.4935L68.0535 23.076L59.2374 32.1829L55.7085 35.826L52.4622 39.1803L45.4817 46.4233L52.5201 53.1572Z" fill="#1C63B7"/>
<path d="M32.6247 51.8319C32.6247 51.8319 32.7367 52.016 32.7503 52.0366C33.0953 52.5813 33.5699 53.08 34.019 53.5764L41.0518 50.3546L24.891 35.4283L24.4488 37.7374L37.1295 50.1864L32.6247 51.8319Z" fill="#959596"/>
<path d="M48.2189 38.7715C49.6913 38.7715 51.1197 38.905 52.4835 39.1519L55.7294 35.7977C53.4597 35.019 50.9115 34.5814 48.2189 34.5814C43.6401 34.5814 39.4833 35.8477 36.4011 37.9086L39.2292 40.5664C41.8445 39.4301 44.9222 38.7715 48.2189 38.7715Z" fill="#959596"/>
<path d="M68.2588 32.0135L54.4856 46.238L56.4065 48.0665L68.2588 35.8265L80.6898 47.6443L82.6118 45.6639L68.2588 32.0135Z" fill="#959596"/>
<path d="M31.2754 48.8353C31.572 47.6338 32.1208 46.4921 32.8769 45.4382L31.4559 44.0124C31.1723 44.8894 31.0166 45.8028 31.0166 46.7409C31.0166 47.4555 31.1084 48.1548 31.2754 48.8353ZM20.7726 56.7184L20.1759 59.7868L26.1139 57.2519C25.739 56.4696 25.6657 55.4509 25.448 54.6216L20.7726 56.7184ZM16.5943 23.3523L8 70.0217L12.0644 70.351L20.5739 23.0012L16.5943 23.3523Z" fill="#959596"/>
<path d="M65.1613 48.8353C65.3292 48.1548 65.4222 47.4555 65.4222 46.7409C65.4222 44.6329 64.6442 42.6439 63.3079 40.9152L61.2595 43.0196C63.2249 44.643 64.624 46.6421 65.1613 48.8353ZM69.0128 68.8118L64.1579 64.1849C63.3827 64.7115 62.5506 65.1986 61.6823 65.6461L69.0128 72.6262L91.6178 49.2776L91.5928 45.4963L69.0128 68.8118ZM48.543 49.3211L45.482 46.4239L45.4711 50.2081L53.886 58.2222C54.9296 57.964 55.9294 57.6389 56.8707 57.2519L48.543 49.3211Z" fill="#959596"/>
<path d="M71.7337 47.379C71.7337 48.0896 71.669 48.7882 71.555 49.4746C71.0332 52.636 69.3435 55.532 66.8134 57.9271C65.3058 59.3545 63.5012 60.6038 61.464 61.6242C60.5861 62.0659 59.6663 62.4628 58.7091 62.814C55.5512 63.9699 51.99 64.6205 48.2189 64.6205C42.8288 64.6205 37.8671 63.288 33.9028 61.0519C31.6222 59.7638 29.6742 58.1781 28.1638 56.3719C27.5895 55.6838 27.078 54.9657 26.6387 54.2193C25.7612 52.7336 25.1588 51.1426 24.8837 49.4746C24.7694 48.7882 24.7039 48.0896 24.7039 47.379C24.7039 47.1561 24.7197 46.935 24.7317 46.7156C24.7294 46.7032 24.7253 46.6873 24.7242 46.6756C24.61 47.3626 24.7039 50.861 24.7039 51.5703C24.7039 52.6947 24.8549 53.7929 25.1364 54.8581C25.3542 55.6879 25.6544 56.4961 26.0293 57.2783C26.9722 59.2515 28.3898 61.0613 30.1843 62.6329C34.4995 66.4082 40.9761 68.8118 48.2189 68.8118C53.246 68.8118 57.8984 67.6521 61.7213 65.6827C62.5891 65.2351 63.4151 64.7472 64.1909 64.2205C66.0846 62.9351 67.6901 61.4254 68.9249 59.7456C70.7165 57.3147 71.7337 54.5298 71.7337 51.5703C71.7337 50.9461 71.7882 47.9878 71.7271 46.8133C71.7176 46.6526 71.7337 47.1755 71.7337 47.379Z" fill="#959596"/>
</svg>
