<svg width="96" height="96" viewBox="0 0 96 96" fill="none" xmlns="http://www.w3.org/2000/svg">
<path d="M82 72.7649C82 75.0942 80.0875 77 77.75 77H18.25C15.9125 77 14 75.0942 14 72.7649V47.3545C14 45.0252 15.3515 41.7729 17.0062 40.1241L44.9938 12.2345C46.6457 10.5885 49.3515 10.5885 51.0033 12.2345L78.9938 40.1266C80.6457 41.7726 82 45.028 82 47.3573V72.7677V72.7649Z" fill="#F2F4F9"/>
<path d="M78.9938 40.1228L51.0062 12.2345C49.3543 10.5885 46.6485 10.5885 44.9967 12.2345L17.0062 40.1228C15.3543 41.7688 14 45.0237 14 47.3529V72.7623C14 75.0915 15.9125 76.9972 18.25 76.9972H44.3932L32.8813 65.5263C32.2892 65.7295 31.6573 65.8453 31 65.8453C27.7983 65.8453 25.1917 63.2479 25.1917 60.0576C25.1917 56.8673 27.7983 54.2699 31 54.2699C34.2017 54.2699 36.8083 56.8673 36.8083 60.0576C36.8083 60.7154 36.6922 61.345 36.4882 61.9351L45.45 70.8651V38.1491C43.5233 37.2062 42.1917 35.2356 42.1917 32.9572C42.1917 29.7669 44.7983 27.1695 48 27.1695C51.2017 27.1695 53.8083 29.7669 53.8083 32.9572C53.8083 35.2356 52.4767 37.2062 50.55 38.1491V61.0937L59.4637 52.2117C59.288 51.6584 59.1917 51.0711 59.1917 50.4613C59.1917 47.271 61.7983 44.6736 65 44.6736C68.2017 44.6736 70.8083 47.271 70.8083 50.4613C70.8083 53.6516 68.2017 56.249 65 56.249C64.2917 56.249 63.6173 56.1163 62.9912 55.8848L50.55 68.2818V77H77.75C80.0875 77 82 75.0943 82 72.7651V47.3557C82 45.0265 80.6485 41.7741 78.9938 40.1254V40.1228Z" fill="#18BCF2"/>
</svg>
